<svg xmlns="http://www.w3.org/2000/svg" xmlns:xlink="http://www.w3.org/1999/xlink" width="30" height="30" viewBox="0 0 30 30" fill="none"><g opacity="1" transform="translate(0 0)  rotate(0 15 15)"><path id="矩形 6" fill-rule="evenodd" style="fill:#CCCCCC" transform="translate(0 0)  rotate(0 15 15)" opacity="0" d="M0,30L30,30L30,0L0,0L0,30Z " /><path id="并集" fill-rule="evenodd" style="fill:#93959C" transform="translate(5 5)  rotate(0 10 10)" opacity="1" d="M14.24 12.87L9.66 12.87C9.29 12.87 8.98 12.56 8.98 12.19L8.98 12.05C8.98 11.68 9.29 11.37 9.66 11.37L13.49 11.37C13.91 11.37 14.24 11.04 14.24 10.62L14.24 2.24C14.24 1.83 13.91 1.5 13.49 1.5L2.27 1.5C1.85 1.5 1.51 1.83 1.51 2.24L1.51 10.62C1.51 11.04 1.85 11.37 2.27 11.37C2.64 11.37 2.95 11.67 2.95 12.05L2.95 12.19C2.95 12.56 2.64 12.87 2.27 12.87L1.51 12.87C0.68 12.87 0 12.2 0 11.37L0 0.75C0 0.33 0.34 0 0.76 0L14.24 0C15.08 0 15.75 0.67 15.75 1.5L15.75 11.37C15.75 12.2 15.07 12.87 14.24 12.87Z M6.44588 8.63223C6.02588 8.63223 5.68588 8.96223 5.68588 9.37223L5.68588 17.7522C5.68588 18.1722 6.02588 18.5022 6.44588 18.5022L17.7359 18.5022C18.1559 18.5022 18.4959 18.1722 18.4959 17.7522L18.4959 9.37223C18.4959 8.96223 18.1559 8.63223 17.7359 8.63223C17.4059 8.63223 17.1359 8.35223 17.1359 8.02223L17.1359 7.73223C17.1359 7.40223 17.4059 7.13223 17.7359 7.13223L18.4959 7.13223C19.3259 7.13223 20.0059 7.80223 20.0059 8.63223L20.0059 18.5022C20.0059 19.3322 19.3259 20.0022 18.4959 20.0022L5.68588 20.0022C4.85588 20.0022 4.17588 19.3322 4.17588 18.5022L4.17588 8.63223C4.17588 7.80223 4.85588 7.13223 5.68588 7.13223L10.4159 7.13223C10.7559 7.13223 11.0259 7.40223 11.0259 7.73223L11.0259 8.02223C11.0259 8.36223 10.7459 8.63223 10.4159 8.63223L6.44588 8.63223Z " /></g></svg>