<svg xmlns="http://www.w3.org/2000/svg" xmlns:xlink="http://www.w3.org/1999/xlink" width="30" height="30" viewBox="0 0 30 30" fill="none"><g opacity="1" transform="translate(0 0)  rotate(0 15 15)"><path id="矩形 6" fill-rule="evenodd" style="fill:#CCCCCC" transform="translate(0 0)  rotate(0 15 15)" opacity="0" d="M0,30L30,30L30,0L0,0L0,30Z " /><path id="分组 1" fill-rule="evenodd" style="fill:#93959C" transform="translate(5 4.201109479483364)  rotate(0 10 10.798890520516618)" opacity="1" d="M7.39847 2.61235C6.70847 3.29235 6.32847 4.21235 6.32847 5.18235C6.32847 6.15235 6.70847 7.07235 7.39847 7.75235C8.07847 8.44235 8.99847 8.82235 9.96847 8.82235C10.9385 8.82235 11.8585 8.44235 12.5385 7.75235C13.2285 7.07235 13.6085 6.15235 13.6085 5.18235C13.6085 4.21235 13.2285 3.29235 12.5385 2.61235C11.8585 1.92235 10.9385 1.54235 9.96847 1.54235C8.99847 1.54235 8.07847 1.92235 7.39847 2.61235Z M4.78612 5.18C4.78612 8.04 7.10612 10.36 9.96612 10.36C12.8261 10.36 15.1461 8.04 15.1461 5.18C15.1461 2.32 12.8261 0 9.96612 0C7.10612 0 4.78612 2.32 4.78612 5.18Z M1.97235 19.6457C2.11235 19.7957 2.42235 20.0557 2.86235 20.0557L17.1424 20.0557C17.5824 20.0557 17.8824 19.7957 18.0324 19.6457C18.3024 19.3357 18.4624 18.9357 18.4624 18.5057L18.4624 16.9957C18.4624 16.3557 18.3424 15.7357 18.1124 15.1557C17.8924 14.6057 17.5824 14.1057 17.1924 13.6757C16.4024 12.8257 15.3624 12.3557 14.2724 12.3557L13.5324 12.3557L11.3424 14.7257C10.9924 15.0957 10.5024 15.3057 9.99235 15.3057C9.49235 15.3057 8.99235 15.0957 8.65235 14.7157L6.47235 12.3557L5.72235 12.3557C4.63235 12.3557 3.60235 12.8257 2.81235 13.6757C2.41235 14.1057 2.10235 14.6057 1.88235 15.1657C1.66235 15.7457 1.54235 16.3657 1.54235 16.9957L1.54235 18.5057C1.54235 18.9357 1.69235 19.3457 1.97235 19.6457Z M14.28 10.8133L12.99 10.8133C12.91 10.8133 12.84 10.8433 12.78 10.9033L10.21 13.6733C10.15 13.7333 10.08 13.7633 10 13.7633C9.92 13.7633 9.84 13.7333 9.79 13.6733L7.23 10.9033C7.17 10.8433 7.1 10.8133 7.02 10.8133L5.73 10.8133C2.58 10.8133 0 13.5933 0 16.9933L0 18.5033C0 20.2034 1.29 21.5933 2.86 21.5933L17.14 21.5933C18.71 21.5933 20 20.2034 20 18.5033L20 16.9933C20 13.5933 17.43 10.8133 14.28 10.8133Z " /></g></svg>