<svg xmlns="http://www.w3.org/2000/svg" xmlns:xlink="http://www.w3.org/1999/xlink" width="30" height="30" viewBox="0 0 30 30" fill="none"><g opacity="1" transform="translate(0 0)  rotate(0 15 15)"><path id="矩形 6" fill-rule="evenodd" style="fill:#CCCCCC" transform="translate(0 0)  rotate(0 15 15)" opacity="0" d="M0,30L30,30L30,0L0,0L0,30Z " /><path id="分组 1" fill-rule="evenodd" style="fill:#93959C" transform="translate(5 5)  rotate(0 10 10)" opacity="1" d="M15.71 20C16.11 20 16.43 19.68 16.43 19.29C16.43 18.89 16.11 18.57 15.71 18.57L10.71 18.57L10.71 17.14L17.86 17.14C19.04 17.14 20 16.18 20 15L20 2.14C20 0.96 19.04 0 17.86 0L2.14 0C0.96 0 0 0.96 0 2.14L0 15C0 16.18 0.96 17.14 2.14 17.14L9.29 17.14L9.29 18.57L4.29 18.57C3.89 18.57 3.57 18.89 3.57 19.29C3.57 19.68 3.89 20 4.29 20L15.71 20Z M1.42857 2.13857L1.42857 12.1386L18.5686 12.1386L18.5686 2.13857C18.5686 1.74857 18.2486 1.42857 17.8586 1.42857L2.13857 1.42857C1.74857 1.42857 1.42857 1.74857 1.42857 2.13857Z M18.5686 13.5714L1.42857 13.5714L1.42857 15.0014C1.42857 15.3914 1.74857 15.7114 2.13857 15.7114L17.8586 15.7114C18.2486 15.7114 18.5686 15.3914 18.5686 15.0014L18.5686 13.5714Z " /></g></svg>