<svg xmlns="http://www.w3.org/2000/svg" xmlns:xlink="http://www.w3.org/1999/xlink" width="20" height="20" viewBox="0 0 20 20" fill="none"><path id="分组 1" fill-rule="evenodd" style="fill:#373D47" transform="translate(0 0)  rotate(0 10.000000000000002 10)" opacity="1" d="M8.39 16.79C10.34 16.79 12.22 16.12 13.72 14.88C13.75 14.92 13.78 14.97 13.82 15L18.57 19.76C18.73 19.91 18.94 20 19.16 20C19.39 20 19.6 19.91 19.76 19.75C20.08 19.42 20.08 18.89 19.76 18.57L15 13.82C14.97 13.78 14.93 13.74 14.88 13.72C16.07 12.27 16.79 10.41 16.79 8.39C16.79 3.76 13.03 0 8.39 0C3.76 0 0 3.76 0 8.39C0 13.03 3.76 16.79 8.39 16.79Z M15.1088 8.38853C15.1088 4.68853 12.0988 1.67853 8.39879 1.67853C4.68879 1.67853 1.67879 4.68853 1.67879 8.38853C1.67879 12.0985 4.68879 15.1085 8.39879 15.1085C12.0988 15.1085 15.1088 12.0985 15.1088 8.38853Z " /></svg>