<svg xmlns="http://www.w3.org/2000/svg" xmlns:xlink="http://www.w3.org/1999/xlink" width="12" height="14" viewBox="0 0 12 14" fill="none"><path id="并集" fill-rule="evenodd" style="fill:#95969B" transform="translate(0 0)  rotate(0 6 7)" opacity="1" d="M11 2L1 2C0.73 2 0.48 1.89 0.29 1.71C0.11 1.52 0 1.27 0 1C0 0.73 0.11 0.48 0.29 0.29C0.48 0.11 0.73 0 1 0L11 0C11.27 0 11.52 0.11 11.71 0.29C11.89 0.48 12 0.73 12 1C12 1.27 11.89 1.52 11.71 1.71C11.52 1.89 11.27 2 11 2Z M6.16 4.06L8.96 6.87C9.06 6.98 8.97 7.13 8.8 7.13L6.95 7.13L6.95 13.84C6.95 13.93 6.86 14 6.75 14L5.25 14C5.14 14 5.05 13.93 5.05 13.84L5.05 7.13L3.2 7.13C3.03 7.13 2.94 6.98 3.04 6.87L5.84 4.06C5.92 3.98 6.08 3.98 6.16 4.06Z " /></svg>