<svg xmlns="http://www.w3.org/2000/svg" xmlns:xlink="http://www.w3.org/1999/xlink" width="16" height="16" viewBox="0 0 16 16" fill="none"><defs><rect id="path_0" x="0" y="0" width="16" height="16" /></defs><g opacity="1" transform="translate(0 0)  rotate(0 8 8)"><mask id="bg-mask-0" fill="white"><use xlink:href="#path_0"></use></mask><g mask="url(#bg-mask-0)" ><path id="分组 1" fill-rule="evenodd" style="fill:#0663E7" transform="translate(0 0)  rotate(0 8 8)" opacity="1" d="M0 8C0 12.42 3.58 16 8 16C12.42 16 16 12.42 16 8C16 3.58 12.42 0 8 0C3.58 0 0 3.58 0 8Z M7.58972 10.927L12.3097 6.36699L12.3797 6.29699C12.7097 5.89699 12.6897 5.31699 12.3397 4.95699C12.1497 4.75699 11.8997 4.64699 11.6397 4.64699C11.3697 4.64699 11.1097 4.74699 10.9197 4.92699L6.72972 8.96699L5.07972 7.41699L4.99972 7.34699C4.56972 7.02699 3.96972 7.08699 3.62972 7.49699C3.27972 7.90699 3.31972 8.51699 3.70972 8.87699L5.89972 10.937L5.97972 11.007C6.19972 11.167 6.47972 11.237 6.73972 11.197C7.03972 11.237 7.34972 11.147 7.58972 10.927Z " /></g></g></svg>