<svg xmlns="http://www.w3.org/2000/svg" xmlns:xlink="http://www.w3.org/1999/xlink" width="20" height="20" viewBox="0 0 20 20" fill="none"><path id="Combined Shape" fill-rule="evenodd" style="fill:#373D47" transform="translate(0 0)  rotate(0 10 10)" opacity="1" d="M10 0C15.52 0 20 4.48 20 10C20 15.52 15.52 20 10 20C4.48 20 0 15.52 0 10C0 4.48 4.48 0 10 0Z M5.29185 7.64249L7.64651 9.99716L5.28949 12.3542C4.97836 12.6653 4.79452 13.0896 4.80159 13.535C4.79452 13.9805 4.97836 14.4048 5.28949 14.7159C5.94003 15.3665 6.99362 15.3594 7.64416 14.7088L10.0012 12.3518L12.3629 14.7136C13.0135 15.3641 14.06 15.3641 14.7105 14.7136C15.361 14.063 15.3681 13.0094 14.7176 12.3589L12.3558 9.99715L14.7152 7.63777C15.3658 6.98724 15.3658 5.94072 14.7152 5.29018C14.0647 4.63964 13.0111 4.63257 12.3606 5.28311L10.0012 7.64249L7.64651 5.28782C7.33539 4.9767 6.91112 4.79285 6.46564 4.79992C6.02017 4.79285 5.5959 4.9767 5.28478 5.28782C4.63424 5.93836 4.64131 6.99195 5.29185 7.64249Z " /></svg>