<svg xmlns="http://www.w3.org/2000/svg" xmlns:xlink="http://www.w3.org/1999/xlink" width="16" height="16" viewBox="0 0 16 16" fill="none"><defs><rect id="path_0" x="0" y="0" width="16" height="16" /><rect id="path_1" x="0" y="0" width="16" height="16" /></defs><g opacity="1" transform="translate(0 0)  rotate(0 8 8)"><mask id="bg-mask-0" fill="white"><use xlink:href="#path_0"></use></mask><g mask="url(#bg-mask-0)" ><g opacity="1" transform="translate(0 0)  rotate(0 8 8)"><mask id="bg-mask-1" fill="white"><use xlink:href="#path_1"></use></mask><g mask="url(#bg-mask-1)" ><path id="分组 1" fill-rule="evenodd" style="fill:#FF5C5C" transform="translate(0.03125 0.03125)  rotate(0 7.96875 7.96875)" opacity="1" d="M0 7.97C0 12.37 3.57 15.94 7.97 15.94C12.37 15.94 15.94 12.37 15.94 7.97C15.94 3.57 12.37 0 7.97 0C3.57 0 0 3.57 0 7.97Z M11.3461 5.33611C11.5561 5.13611 11.5561 4.80611 11.3461 4.59611C11.1461 4.38611 10.8061 4.38611 10.5961 4.58611L7.96611 7.21611L5.33611 4.58611C5.13611 4.38611 4.80611 4.38611 4.59611 4.58611C4.38611 4.79611 4.38611 5.12611 4.58611 5.33611L7.21611 7.96611L4.58611 10.5961C4.38611 10.8061 4.38611 11.1361 4.58611 11.3461C4.79611 11.5561 5.12611 11.5561 5.33611 11.3461L7.96611 8.71611L10.5961 11.3461C10.8061 11.5561 11.1361 11.5561 11.3461 11.3461C11.5561 11.1461 11.5561 10.8061 11.3461 10.5961L8.71611 7.96611L11.3461 5.33611Z " /></g></g></g></g></svg>