<svg xmlns="http://www.w3.org/2000/svg" xmlns:xlink="http://www.w3.org/1999/xlink" width="30" height="30" viewBox="0 0 30 30" fill="none"><g opacity="1" transform="translate(0 0)  rotate(0 15 15)"><path id="矩形 6" fill-rule="evenodd" style="fill:#CCCCCC" transform="translate(0 0)  rotate(0 15 15)" opacity="0" d="M0,30L30,30L30,0L0,0L0,30Z " /><path id="并集" fill-rule="evenodd" style="fill:#93959C" transform="translate(4 4)  rotate(0 11 11)" opacity="1" d="M0.86 15.28C1.42 16.59 2.21 17.77 3.22 18.78C4.23 19.79 5.41 20.58 6.72 21.14C8.07 21.71 9.51 22 11 22C12.49 22 13.93 21.71 15.28 21.14C16.59 20.58 17.77 19.79 18.78 18.78C19.79 17.77 20.58 16.59 21.14 15.28C21.71 13.93 22 12.48 22 11C22 9.52 21.71 8.07 21.14 6.72C20.58 5.41 19.79 4.23 18.78 3.22C17.77 2.21 16.59 1.42 15.28 0.86C13.93 0.29 12.48 0 11 0C9.52 0 8.07 0.29 6.72 0.86C5.41 1.42 4.23 2.21 3.22 3.22C2.21 4.23 1.42 5.41 0.86 6.72C0.29 8.07 0 9.52 0 11C0 12.48 0.29 13.93 0.86 15.28Z M4.53341 4.53341C2.80341 6.25341 1.85341 8.55341 1.85341 11.0034C1.85341 13.4434 2.80341 15.7434 4.53341 17.4634C6.25341 19.1934 8.55341 20.1434 11.0034 20.1434C13.4434 20.1434 15.7434 19.1934 17.4634 17.4634C19.1934 15.7434 20.1434 13.4434 20.1434 11.0034C20.1434 8.55341 19.1934 6.26341 17.4634 4.53341C15.7434 2.80341 13.4434 1.85341 11.0034 1.85341C8.55341 1.85341 6.26341 2.80341 4.53341 4.53341Z M11.3055 10.6911L11.3055 5.6006C11.3055 5.0806 10.8955 4.6706 10.3855 4.6706C9.86549 4.6706 9.45549 5.0806 9.45549 5.6006L9.45549 11.6211C9.45549 12.1311 9.86549 12.5411 10.3855 12.5411L15.1655 12.5411C15.6755 12.5411 16.0955 12.1311 16.0955 11.6211C16.0955 11.1011 15.6755 10.6911 15.1655 10.6911L11.3055 10.6911Z " /></g></svg>