<svg xmlns="http://www.w3.org/2000/svg" xmlns:xlink="http://www.w3.org/1999/xlink" width="30" height="30" viewBox="0 0 30 30" fill="none"><g opacity="1" transform="translate(0 0)  rotate(0 15 15)"><path id="矩形 6" fill-rule="evenodd" style="fill:#CCCCCC" transform="translate(0 0)  rotate(0 15 15)" opacity="0" d="M0,30L30,30L30,0L0,0L0,30Z " /><path id="分组 1" fill-rule="evenodd" style="fill:#93959C" transform="translate(4 4.5)  rotate(0 11 10.5)" opacity="1" d="M15.8399 2.6L11.3599 0.09C11.1399 -0.03 10.8599 -0.03 10.6399 0.09L6.15989 2.6C5.92989 2.72 5.79989 2.95 5.79989 3.2L5.79989 8.23C5.79989 8.47 5.92989 8.7 6.15989 8.82L10.6399 11.34C10.7499 11.4 10.8799 11.43 10.9999 11.43C11.1199 11.43 11.2499 11.4 11.3599 11.34L15.8399 8.82C16.0699 8.7 16.1999 8.47 16.1999 8.23L16.1999 3.2C16.1999 2.95 16.0699 2.72 15.8399 2.6Z M10.9986 9.94829L14.7686 7.83829L14.7686 3.59829L10.9986 1.47829L7.22857 3.59829L7.22857 7.83829L10.9986 9.94829Z M10.06 12.1598L5.57 9.64979C5.35 9.52979 5.08 9.52979 4.86 9.64979L0.36 12.1598C0.14 12.2898 0 12.5198 0 12.7698L0 17.7898C0 18.0398 0.14 18.2698 0.36 18.3998L4.93 20.8998C5.03 20.9698 5.16 20.9998 5.29 20.9998C5.39 20.9898 5.49 20.9598 5.57 20.8998L10.06 18.3998C10.28 18.2698 10.41 18.0398 10.41 17.7898L10.41 12.7698C10.41 12.5198 10.28 12.2898 10.06 12.1598Z M5.28857 19.5019L8.98857 17.4019L8.98857 13.1719L5.28857 11.0519L1.42857 13.1719L1.42857 17.4019L5.28857 19.5019Z M17.1457 20.8998L21.6457 18.3998C21.8657 18.2698 21.9957 18.0398 21.9957 17.7898L21.9957 12.7698C21.9957 12.5198 21.8657 12.2898 21.6457 12.1598L17.1457 9.64979C16.9257 9.52979 16.6457 9.52979 16.4257 9.64979L11.9457 12.1598C11.7257 12.2898 11.5857 12.5198 11.5857 12.7698L11.5857 17.7898C11.5857 18.0398 11.7257 18.2698 11.9457 18.3998L16.4257 20.8998C16.5357 20.9698 16.6557 20.9998 16.7857 20.9998C16.9157 20.9998 17.0357 20.9698 17.1457 20.8998Z M16.7843 19.5019L20.5743 17.4019L20.5743 13.1719L16.7843 11.0519L13.0143 13.1719L13.0143 17.4019L16.7843 19.5019Z " /></g></svg>