<svg xmlns="http://www.w3.org/2000/svg" xmlns:xlink="http://www.w3.org/1999/xlink" width="30" height="30" viewBox="0 0 30 30" fill="none"><g opacity="1" transform="translate(0 0)  rotate(0 15 15)"><path id="矩形 6" fill-rule="evenodd" style="fill:#CCCCCC" transform="translate(0 0)  rotate(0 15 15)" opacity="0" d="M0,30L30,30L30,0L0,0L0,30Z " /><path id="分组 1" fill-rule="evenodd" style="fill:#93959C" transform="translate(4.686743402211164 4.687499853889676)  rotate(0 10.312507795623354 10.311884901365133)" opacity="1" d="M6.07 19.82C7.56 18.65 7.94 16.56 6.96 14.94L8.38 13.53C8.94 13.87 9.61 14.06 10.31 14.06C11.24 14.06 12.1 13.72 12.75 13.16L15.11 15.14C14.73 16.45 15.34 17.86 16.57 18.46C17.8 19.07 19.28 18.7 20.09 17.59C20.89 16.48 20.78 14.96 19.83 13.97C18.87 12.99 17.35 12.84 16.22 13.62L13.83 11.62C13.98 11.21 14.06 10.77 14.06 10.31C14.06 9.6 13.87 8.94 13.53 8.38L16.57 5.34C17.61 5.85 18.86 5.67 19.71 4.89C20.57 4.1 20.85 2.87 20.43 1.79C20.01 0.71 18.97 0 17.81 0C16.85 0 15.96 0.49 15.44 1.3C14.93 2.11 14.86 3.12 15.26 3.99L12.19 7.06C11.64 6.75 11 6.56 10.31 6.56C9.66 6.56 9.02 6.73 8.45 7.06L6.99 5.65C7.94 4.02 7.54 1.93 6.04 0.78C4.55 -0.37 2.43 -0.23 1.09 1.1C-0.24 2.44 -0.37 4.56 0.79 6.05C1.95 7.54 4.04 7.94 5.66 6.98L7.11 8.37C6.76 8.94 6.56 9.6 6.56 10.31C6.56 10.97 6.74 11.62 7.06 12.19L5.63 13.63C3.99 12.68 1.91 13.1 0.77 14.6C-0.38 16.11 -0.23 18.23 1.12 19.55C2.47 20.87 4.59 20.99 6.07 19.82Z M1.87576 16.88C1.87576 17.91 2.71576 18.75 3.75576 18.75C4.78576 18.75 5.62576 17.91 5.62576 16.88C5.62576 15.84 4.78576 15 3.75576 15C2.71576 15 1.87576 15.84 1.87576 16.88Z M16.8758 15.94C16.8758 16.45 17.2958 16.88 17.8158 16.88C18.3258 16.88 18.7558 16.45 18.7558 15.94C18.7558 15.42 18.3258 15 17.8158 15C17.2958 15 16.8758 15.42 16.8758 15.94Z M8.43826 10.3175C8.43826 11.3475 9.27826 12.1875 10.3183 12.1875C11.3483 12.1875 12.1883 11.3475 12.1883 10.3175C12.1883 9.2775 11.3483 8.4375 10.3183 8.4375C9.27826 8.4375 8.43826 9.2775 8.43826 10.3175Z M1.87576 3.755C1.87576 4.785 2.71576 5.625 3.75576 5.625C4.78576 5.625 5.62576 4.785 5.62576 3.755C5.62576 2.715 4.78576 1.875 3.75576 1.875C2.71576 1.875 1.87576 2.715 1.87576 3.755Z M16.8758 2.815C16.8758 3.325 17.2958 3.755 17.8158 3.755C18.3258 3.755 18.7558 3.325 18.7558 2.815C18.7558 2.295 18.3258 1.875 17.8158 1.875C17.2958 1.875 16.8758 2.295 16.8758 2.815Z " /><path  id="分组 1" style="stroke:#FFFFFF; stroke-width:0.5; stroke-opacity:1; stroke-dasharray:0 0" transform="translate(4.686743402211164 4.687499853889676)  rotate(0 10.312507795623354 10.311884901365133)" d="M6.07 19.82C7.56 18.65 7.94 16.56 6.96 14.94L8.38 13.53C8.94 13.87 9.61 14.06 10.31 14.06C11.24 14.06 12.1 13.72 12.75 13.16L15.11 15.14C14.73 16.45 15.34 17.86 16.57 18.46C17.8 19.07 19.28 18.7 20.09 17.59C20.89 16.48 20.78 14.96 19.83 13.97C18.87 12.99 17.35 12.84 16.22 13.62L13.83 11.62C13.98 11.21 14.06 10.77 14.06 10.31C14.06 9.6 13.87 8.94 13.53 8.38L16.57 5.34C17.61 5.85 18.86 5.67 19.71 4.89C20.57 4.1 20.85 2.87 20.43 1.79C20.01 0.71 18.97 0 17.81 0C16.85 0 15.96 0.49 15.44 1.3C14.93 2.11 14.86 3.12 15.26 3.99L12.19 7.06C11.64 6.75 11 6.56 10.31 6.56C9.66 6.56 9.02 6.73 8.45 7.06L6.99 5.65C7.94 4.02 7.54 1.93 6.04 0.78C4.55 -0.37 2.43 -0.23 1.09 1.1C-0.24 2.44 -0.37 4.56 0.79 6.05C1.95 7.54 4.04 7.94 5.66 6.98L7.11 8.37C6.76 8.94 6.56 9.6 6.56 10.31C6.56 10.97 6.74 11.62 7.06 12.19L5.63 13.63C3.99 12.68 1.91 13.1 0.77 14.6C-0.38 16.11 -0.23 18.23 1.12 19.55C2.47 20.87 4.59 20.99 6.07 19.82Z M1.87576 16.88C1.87576 17.91 2.71576 18.75 3.75576 18.75C4.78576 18.75 5.62576 17.91 5.62576 16.88C5.62576 15.84 4.78576 15 3.75576 15C2.71576 15 1.87576 15.84 1.87576 16.88Z M16.8758 15.94C16.8758 16.45 17.2958 16.88 17.8158 16.88C18.3258 16.88 18.7558 16.45 18.7558 15.94C18.7558 15.42 18.3258 15 17.8158 15C17.2958 15 16.8758 15.42 16.8758 15.94Z M8.43826 10.3175C8.43826 11.3475 9.27826 12.1875 10.3183 12.1875C11.3483 12.1875 12.1883 11.3475 12.1883 10.3175C12.1883 9.2775 11.3483 8.4375 10.3183 8.4375C9.27826 8.4375 8.43826 9.2775 8.43826 10.3175Z M1.87576 3.755C1.87576 4.785 2.71576 5.625 3.75576 5.625C4.78576 5.625 5.62576 4.785 5.62576 3.755C5.62576 2.715 4.78576 1.875 3.75576 1.875C2.71576 1.875 1.87576 2.715 1.87576 3.755Z M16.8758 2.815C16.8758 3.325 17.2958 3.755 17.8158 3.755C18.3258 3.755 18.7558 3.325 18.7558 2.815C18.7558 2.295 18.3258 1.875 17.8158 1.875C17.2958 1.875 16.8758 2.295 16.8758 2.815Z " /></g></svg>