<svg xmlns="http://www.w3.org/2000/svg" xmlns:xlink="http://www.w3.org/1999/xlink" width="30" height="30" viewBox="0 0 30 30" fill="none"><g opacity="1" transform="translate(0 0)  rotate(0 15 15)"><path id="矩形 6" fill-rule="evenodd" style="fill:#CCCCCC" transform="translate(0 0)  rotate(0 15 15)" opacity="0" d="M0,30L30,30L30,0L0,0L0,30Z " /><path id="分组 1" fill-rule="evenodd" style="fill:#93959C" transform="translate(6.264790279509697 4)  rotate(0 8.73520972049029 11)" opacity="1" d="M0 20.09C0.01 21.36 0.2 22 1.94 22L15.53 22C16.94 22 17.47 21.51 17.47 20.09L17.47 8.13L17.47 6.91L17.47 6.7L17.47 6.47L17.33 6.36L11.34 0L9.98 0C13.08 0 1.94 0 1.94 0C0.39 -0.01 0 0.86 0 1.91L0 20.09Z M11.647 5.9084C11.647 6.4384 11.757 6.4684 12.297 6.4684L15.527 6.4684L11.647 2.3984L11.647 5.9084Z M16.1741 20.0543L16.1741 7.76432L11.6441 7.76432C10.5741 7.76432 10.3541 6.88432 10.3541 5.82432L10.3541 1.29432L1.94408 1.29432C1.40408 1.29432 1.29408 1.41432 1.29408 1.94432L1.29408 20.0543C1.29408 20.5843 1.40408 20.7043 1.94408 20.7043L15.5341 20.7043C16.0641 20.7043 16.1741 20.5843 16.1741 20.0543Z M3.23521 16.8194L14.2352 16.8194L14.2352 15.5294L3.23521 15.5294L3.23521 16.8194Z M3.23521 14.2312L14.2352 14.2312L14.2352 12.9412L3.23521 12.9412L3.23521 14.2312Z M3.23521 10.996L8.41521 10.996L8.41521 9.70601L3.23521 9.70601L3.23521 10.996Z M3.23521 8.40781L8.41521 8.40781L8.41521 7.11781L3.23521 7.11781L3.23521 8.40781Z " /></g></svg>